<svg width="101" height="11" fill="none" xmlns="http://www.w3.org/2000/svg"><path d="M6.953 7.219a2.79 2.79 0 01-.728.368 2.26 2.26 0 01-.76.145c-.748 0-1.39-.257-1.913-.764a2.527 2.527 0 01-.781-1.875c0-.744.258-1.37.78-1.883.524-.52 1.166-.776 1.913-.776.232 0 .49.052.775.15.284.1.53.231.748.396.185.131.397.112.496-.027l1.006-1.467c.086-.125.046-.323-.113-.435a5.016 5.016 0 00-1.41-.69C6.418.175 5.915.083 5.465.083a5.13 5.13 0 00-1.998.395 4.972 4.972 0 00-1.622 1.06c-.45.44-.807.973-1.072 1.592a4.926 4.926 0 00-.397 1.962c0 .69.132 1.342.397 1.961a4.904 4.904 0 001.072 1.593c.457.44.993.796 1.622 1.06a5.247 5.247 0 001.998.388c.464 0 .967-.086 1.51-.263.549-.178.999-.402 1.356-.672.166-.112.238-.31.159-.434l-.986-1.488c-.106-.151-.344-.158-.55-.02zm2.774 2.323c0 .217.132.342.35.342h6.354c.218 0 .357-.131.357-.342V8.12c0-.27-.185-.447-.483-.447h-4.203v-1.64h3.19c.239 0 .384-.13.384-.348v-1.25c0-.23-.145-.363-.384-.363h-3.19V2.48h4.203c.232 0 .35-.119.35-.35V.618c0-.217-.132-.349-.35-.349h-6.228c-.218 0-.35.132-.35.349v8.925zM24.174 4.79c.55-.362.893-1.04.893-1.744 0-.876-.284-1.56-.847-2.047-.562-.487-1.35-.731-2.369-.731h-3.474c-.173 0-.259.086-.259.25v9.116c0 .165.086.25.259.25h3.752c1.066 0 1.893-.256 2.482-.763.595-.507.893-1.218.893-2.133 0-.48-.119-.921-.357-1.323a2.115 2.115 0 00-.973-.875zm-2.35-2.383c.523 0 .848.31.848.81s-.325.816-.847.816H20.52V2.407h1.304zm-1.303 5.338V5.817h1.575c.615 0 1.006.362 1.006.947 0 .6-.39.981-1.006.981H20.52zm6.175 1.797c0 .217.132.342.35.342H33.4c.218 0 .357-.131.357-.342V8.12c0-.27-.185-.447-.483-.447h-4.203v-1.64h3.19c.239 0 .384-.13.384-.348v-1.25c0-.23-.145-.363-.384-.363h-3.19V2.48h4.203c.232 0 .35-.119.35-.35V.618c0-.217-.132-.349-.35-.349h-6.228c-.218 0-.35.132-.35.349v8.925zM37.146.268h-1.714c-.206 0-.345.151-.345.355v8.919c0 .217.126.349.345.349h1.694c.232 0 .364-.132.364-.349v-2.62h1.158c1.032 0 1.866-.302 2.508-.901.642-.606.967-1.409.967-2.41 0-1.013-.325-1.823-.967-2.428-.642-.612-1.475-.915-2.508-.915h-1.502zm.344 4.489V2.434h1.059c.337 0 .622.111.84.335.225.217.338.494.338.83 0 .335-.113.612-.338.829a1.15 1.15 0 01-.84.329h-1.06zM49.39.268h-2.96c-1.032 0-1.873.303-2.515.915-.642.605-.96 1.415-.96 2.422 0 1.205.55 2.198 1.496 2.758l-1.694 3.126c-.106.191.013.402.225.402h1.979c.192 0 .278-.066.403-.296l1.417-2.712h.986v2.659c0 .217.132.349.364.349h1.694c.219 0 .344-.132.344-.349V.617c0-.204-.139-.349-.344-.349h-.437zm-2.86 4.555c-.337 0-.622-.119-.847-.356a1.265 1.265 0 01-.33-.875c0-.342.112-.619.33-.836.219-.217.503-.33.847-.33h1.238v2.397H46.53zM58.04.268c-.166 0-.252.086-.252.257v3.324h-3.62V.525c0-.171-.086-.257-.252-.257H52.05c-.172 0-.258.086-.258.257v9.11c0 .17.086.256.258.256h1.866c.166 0 .252-.086.252-.257v-3.62h3.62v3.62c0 .171.086.257.251.257h1.873c.166 0 .252-.086.252-.257V.524c0-.17-.086-.256-.252-.256H58.04zM61.342 5.1c0 .684.132 1.335.39 1.954a5.037 5.037 0 001.066 1.586 5.114 5.114 0 003.58 1.448 5.01 5.01 0 002.542-.658 4.84 4.84 0 001.82-1.81 4.938 4.938 0 00.668-2.52c0-.692-.132-1.344-.397-1.962a4.749 4.749 0 00-1.066-1.6A4.902 4.902 0 0068.344.485 4.945 4.945 0 0066.378.09a5 5 0 00-1.972.395 5.003 5.003 0 00-1.608 1.053 4.943 4.943 0 00-1.066 1.6 5.038 5.038 0 00-.39 1.961zm2.396 0c0-.738.258-1.357.767-1.863a2.564 2.564 0 011.873-.764 2.55 2.55 0 011.867.764 2.52 2.52 0 01.767 1.862 2.51 2.51 0 01-.767 1.85c-.51.507-1.132.757-1.867.757-.741 0-1.37-.25-1.88-.757-.509-.507-.76-1.12-.76-1.85zM78.304.261c-.185 0-.337.165-.337.356v2.712c0 .493-.16.888-.47 1.184-.311.297-.722.448-1.244.448-1.04 0-1.655-.612-1.655-1.646V.617c0-.204-.159-.356-.37-.356h-1.701c-.18 0-.325.165-.325.356v2.705c0 1.198.358 2.159 1.072 2.883.715.717 1.642 1.08 2.78 1.08.741 0 1.436-.297 1.913-.75v3.007c0 .19.145.342.337.342h1.714a.346.346 0 00.344-.349V.617c0-.204-.138-.356-.324-.356h-1.734zm9.411 4.542l3.078-4.08c.159-.211.092-.435-.152-.435h-2.178c-.231 0-.357.026-.51.23l-2.508 3.35H84.38V.525c0-.165-.086-.25-.252-.25h-1.886c-.172 0-.258.085-.258.25v9.103c0 .17.086.256.258.256h1.886c.166 0 .252-.085.252-.256V6.119h1.363l2.436 3.634a.443.443 0 00.344.151h2.197c.232 0 .291-.23.159-.421l-3.164-4.68zM97.193.584a.487.487 0 00-.437-.323h-1.397a.498.498 0 00-.45.323l-3.534 8.919c-.086.23.013.388.258.388h1.873a.442.442 0 00.43-.316l.43-1.257h3.356l.437 1.264c.073.184.238.315.423.315h1.88c.258 0 .344-.17.258-.388L97.193.584zm-1.152 2.83l1 2.916h-2l1-2.916z" fill="#414141"/></svg>