<svg width="40" height="32" fill="none" xmlns="http://www.w3.org/2000/svg"><path d="M35.67 16.819H4.287c-.657 0-1.194.557-1.134 1.215C3.843 25.85 11.113 32 19.98 32s16.136-6.148 16.825-13.966c.057-.658-.477-1.215-1.134-1.215z" fill="#F63"/><path fill-rule="evenodd" clip-rule="evenodd" d="M.225 3.331C1.79 1.28 4.606 0 7.711 0c3.104 0 5.922 1.279 7.486 3.331a1.1 1.1 0 01-.211 1.544 1.106 1.106 0 01-1.548-.21c-1.072-1.408-3.181-2.461-5.727-2.461-2.546 0-4.655 1.053-5.727 2.46a1.106 1.106 0 01-1.548.211 1.1 1.1 0 01-.21-1.544zm24.543 0C26.332 1.28 29.15 0 32.254 0c3.102 0 5.92 1.279 7.485 3.33a1.1 1.1 0 01-.21 1.545 1.106 1.106 0 01-1.547-.21c-1.075-1.408-3.185-2.461-5.728-2.461-2.546 0-4.655 1.053-5.727 2.46a1.106 1.106 0 01-1.548.211 1.1 1.1 0 01-.21-1.544z" fill="#414141"/></svg>